<svg xmlns="http://www.w3.org/2000/svg" aria-hidden="true" style="position:absolute;width:0;height:0;overflow:hidden">
<defs>
<symbol id="icon-x-close" viewBox="0 0 32 32">
<path stroke-linecap="round" stroke-linejoin="round" stroke-width="2.667" d="M24 8 8 24M8 8l16 16"/>
</symbol>
<symbol id="icon-x-close-1" viewBox="0 0 32 32">
<path stroke-linecap="round" stroke-linejoin="round" stroke-width="2.286" d="M24 8 8 24M8 8l16 16"/>
</symbol>
<symbol id="icon-menu-03-1" viewBox="0 0 32 32">
<path stroke-linecap="round" stroke-linejoin="round" stroke-width="2.286" d="M4 16h24M4 8h24M4 24h24"/>
<symbol id="icon-Frame" viewBox="0 0 43 32">
<path fill="#ffd700" style="fill: var(--color1, #ffd700)" d="M0.324 0.344h42.118v31.344h-42.118v-31.344z"></path>
<path fill="#0057b7" style="fill: var(--color2, #0057b7)" d="M0.324 0.344h42.118v15.672h-42.118v-15.672z"></path>

</symbol>
<symbol id="icon-Mastercard" viewBox="0 0 32 32">
<path fill="#ffb600" style="fill: var(--color1, #ffb600)" d="M31.75 16c0 5.2-4.2 9.45-9.45 9.45-5.2 0-9.45-4.25-9.45-9.45v0c0-5.2 4.2-9.45 9.4-9.45 5.3 0 9.5 4.25 9.5 9.45 0 0 0 0 0 0z"></path>
<path fill="#f7981d" style="fill: var(--color2, #f7981d)" d="M22.3 6.55c5.2 0 9.45 4.25 9.45 9.45 0 0 0 0 0 0 0 5.2-4.2 9.45-9.45 9.45-5.2 0-9.45-4.25-9.45-9.45z"></path>
<path fill="#ff8500" style="fill: var(--color3, #ff8500)" d="M22.3 6.55c5.2 0 9.45 4.25 9.45 9.45 0 0 0 0 0 0 0 5.2-4.2 9.45-9.45 9.45z"></path>
<path fill="#ff5050" style="fill: var(--color4, #ff5050)" d="M9.6 6.55c-5.15 0.050-9.35 4.25-9.35 9.45s4.2 9.45 9.45 9.45c2.45 0 4.65-0.95 6.35-2.45v0 0c0.35-0.3 0.65-0.65 0.95-1h-1.95c-0.25-0.3-0.5-0.65-0.7-0.95h3.35c0.2-0.3 0.4-0.65 0.55-1h-4.45c-0.15-0.3-0.3-0.65-0.4-1h5.2c0.3-0.95 0.5-1.95 0.5-3 0-0.7-0.1-1.35-0.2-2h-5.8c0.050-0.35 0.15-0.65 0.25-1h5.2c-0.1-0.35-0.25-0.7-0.4-1h-4.4c0.15-0.35 0.35-0.65 0.55-1h3.35c-0.2-0.35-0.45-0.7-0.75-1h-1.85c0.3-0.35 0.6-0.65 0.95-0.95-1.65-1.55-3.9-2.45-6.35-2.45 0-0.1 0-0.1-0.050-0.1z"></path>
<path fill="#e52836" style="fill: var(--color5, #e52836)" d="M0.25 16c0 5.2 4.2 9.45 9.45 9.45 2.45 0 4.65-0.95 6.35-2.45v0 0c0.35-0.3 0.65-0.65 0.95-1h-1.95c-0.25-0.3-0.5-0.65-0.7-0.95h3.35c0.2-0.3 0.4-0.65 0.55-1h-4.45c-0.15-0.3-0.3-0.65-0.4-1h5.2c0.3-0.95 0.5-1.95 0.5-3 0-0.7-0.1-1.35-0.2-2h-5.8c0.050-0.35 0.15-0.65 0.25-1h5.2c-0.1-0.35-0.25-0.7-0.4-1h-4.4c0.15-0.35 0.35-0.65 0.55-1h3.35c-0.2-0.35-0.45-0.7-0.75-1h-1.85c0.3-0.35 0.6-0.65 0.95-0.95-1.65-1.55-3.9-2.45-6.35-2.45 0 0-0.050 0-0.050 0z"></path>
<path fill="#cb2026" style="fill: var(--color6, #cb2026)" d="M9.7 25.45c2.45 0 4.65-0.95 6.35-2.45v0 0c0.35-0.3 0.65-0.65 0.95-1h-1.95c-0.25-0.3-0.5-0.65-0.7-0.95h3.35c0.2-0.3 0.4-0.65 0.55-1h-4.45c-0.15-0.3-0.3-0.65-0.4-1h5.2c0.3-0.95 0.5-1.95 0.5-3 0-0.7-0.1-1.35-0.2-2h-5.8c0.050-0.35 0.15-0.65 0.25-1h5.2c-0.1-0.35-0.25-0.7-0.4-1h-4.4c0.15-0.35 0.35-0.65 0.55-1h3.35c-0.2-0.35-0.45-0.7-0.75-1h-1.85c0.3-0.35 0.6-0.65 0.95-0.95-1.65-1.55-3.9-2.45-6.35-2.45 0 0-0.050 0-0.050 0z"></path>
<path fill="#fff" style="fill: var(--color7, #fff)" d="M13.050 18.4l0.15-0.85c-0.050 0-0.15 0.050-0.25 0.050-0.35 0-0.4-0.2-0.35-0.3l0.3-1.75h0.55l0.15-0.95h-0.5l0.1-0.6h-1c0 0-0.6 3.3-0.6 3.7 0 0.6 0.35 0.85 0.8 0.85 0.3 0 0.55-0.1 0.65-0.15z"></path>
<path fill="#fff" style="fill: var(--color7, #fff)" d="M13.4 16.8c0 1.4 0.95 1.75 1.75 1.75 0.75 0 1.050-0.15 1.050-0.15l0.2-0.95c0 0-0.55 0.25-1.050 0.25-1.1 0-0.9-0.8-0.9-0.8h2.050c0 0 0.15-0.65 0.15-0.9 0-0.65-0.35-1.45-1.45-1.45-1.050-0.1-1.8 1-1.8 2.25zM15.15 15.35c0.55 0 0.45 0.65 0.45 0.7h-1.1c0-0.050 0.1-0.7 0.65-0.7z"></path>
<path fill="#fff" style="fill: var(--color7, #fff)" d="M21.5 18.4l0.2-1.1c0 0-0.5 0.25-0.85 0.25-0.7 0-1-0.55-1-1.15 0-1.2 0.6-1.85 1.3-1.85 0.5 0 0.9 0.3 0.9 0.3l0.15-1.050c0 0-0.6-0.25-1.15-0.25-1.15 0-2.3 1-2.3 2.9 0 1.25 0.6 2.1 1.8 2.1 0.4 0 0.95-0.15 0.95-0.15z"></path>
<path fill="#fff" style="fill: var(--color7, #fff)" d="M7.55 14.45c-0.7 0-1.2 0.2-1.2 0.2l-0.15 0.85c0 0 0.45-0.2 1.1-0.2 0.35 0 0.65 0.050 0.65 0.35 0 0.2-0.050 0.25-0.050 0.25s-0.3 0-0.45 0c-0.85 0-1.8 0.35-1.8 1.5 0 0.9 0.6 1.1 0.95 1.1 0.7 0 1-0.45 1.050-0.45l-0.050 0.4h0.9l0.4-2.75c0-1.2-1-1.25-1.35-1.25zM7.75 16.7c0 0.15-0.1 0.95-0.7 0.95-0.3 0-0.4-0.25-0.4-0.4 0-0.25 0.15-0.6 0.9-0.6 0.15 0.050 0.2 0.050 0.2 0.050z"></path>
<path fill="#fff" style="fill: var(--color7, #fff)" d="M9.85 18.5c0.25 0 1.5 0.050 1.5-1.3 0-1.25-1.2-1-1.2-1.5 0-0.25 0.2-0.35 0.55-0.35 0.15 0 0.7 0.050 0.7 0.050l0.15-0.9c0 0-0.35-0.1-0.95-0.1-0.75 0-1.5 0.3-1.5 1.3 0 1.15 1.25 1.050 1.25 1.5 0 0.3-0.35 0.35-0.6 0.35-0.45 0-0.9-0.15-0.9-0.15l-0.15 0.9c0.050 0.1 0.3 0.2 1.15 0.2z"></path>
<path fill="#fff" style="fill: var(--color7, #fff)" d="M29.8 13.65l-0.2 1.35c0 0-0.4-0.5-0.95-0.5-0.9 0-1.7 1.1-1.7 2.4 0 0.8 0.4 1.65 1.25 1.65 0.6 0 0.95-0.4 0.95-0.4l-0.050 0.35h1l0.75-4.8-1.050-0.050zM29.35 16.3c0 0.55-0.25 1.25-0.8 1.25-0.35 0-0.55-0.3-0.55-0.8 0-0.8 0.35-1.3 0.8-1.3 0.35 0 0.55 0.25 0.55 0.85z"></path>
<path fill="#fff" style="fill: var(--color7, #fff)" d="M2.1 18.45l0.6-3.6 0.1 3.6h0.7l1.3-3.6-0.55 3.6h1.050l0.8-4.8h-1.65l-1 2.95-0.050-2.95h-1.45l-0.8 4.8h0.95z"></path>
<path fill="#fff" style="fill: var(--color7, #fff)" d="M17.6 18.45c0.3-1.65 0.35-3 1.050-2.75 0.1-0.65 0.25-0.9 0.35-1.15 0 0-0.050 0-0.2 0-0.45 0-0.8 0.6-0.8 0.6l0.1-0.55h-0.95l-0.65 3.9h1.1z"></path>
<path fill="#fff" style="fill: var(--color7, #fff)" d="M23.8 14.45c-0.7 0-1.2 0.2-1.2 0.2l-0.15 0.85c0 0 0.45-0.2 1.1-0.2 0.35 0 0.65 0.050 0.65 0.35 0 0.2-0.050 0.25-0.050 0.25s-0.3 0-0.45 0c-0.85 0-1.8 0.35-1.8 1.5 0 0.9 0.6 1.1 0.95 1.1 0.7 0 1-0.45 1.050-0.45l-0.050 0.4h0.9l0.4-2.75c0.050-1.2-1-1.25-1.35-1.25zM24.050 16.7c0 0.15-0.1 0.95-0.7 0.95-0.3 0-0.4-0.25-0.4-0.4 0-0.25 0.15-0.6 0.9-0.6 0.15 0.050 0.15 0.050 0.2 0.050z"></path>
<path fill="#fff" style="fill: var(--color7, #fff)" d="M26 18.45c0.3-1.65 0.35-3 1.050-2.75 0.1-0.65 0.25-0.9 0.35-1.15 0 0-0.050 0-0.2 0-0.45 0-0.8 0.6-0.8 0.6l0.1-0.55h-0.95l-0.65 3.9h1.1z"></path>
<path fill="#dce5e5" style="fill: var(--color8, #dce5e5)" d="M11.5 17.7c0 0.6 0.35 0.85 0.8 0.85 0.35 0 0.65-0.1 0.75-0.15l0.15-0.85c-0.050 0-0.15 0.050-0.25 0.050-0.35 0-0.4-0.2-0.35-0.3l0.3-1.75h0.55l0.15-0.95h-0.5l0.1-0.6z"></path>
<path fill="#dce5e5" style="fill: var(--color8, #dce5e5)" d="M13.9 16.8c0 1.4 0.45 1.75 1.25 1.75 0.75 0 1.050-0.15 1.050-0.15l0.2-0.95c0 0-0.55 0.25-1.050 0.25-1.1 0-0.9-0.8-0.9-0.8h2.050c0 0 0.15-0.65 0.15-0.9 0-0.65-0.35-1.45-1.45-1.45-1.050-0.1-1.3 1-1.3 2.25zM15.15 15.35c0.55 0 0.65 0.65 0.65 0.7h-1.3c0-0.050 0.1-0.7 0.65-0.7z"></path>
<path fill="#dce5e5" style="fill: var(--color8, #dce5e5)" d="M21.5 18.4l0.2-1.1c0 0-0.5 0.25-0.85 0.25-0.7 0-1-0.55-1-1.15 0-1.2 0.6-1.85 1.3-1.85 0.5 0 0.9 0.3 0.9 0.3l0.15-1.050c0 0-0.6-0.25-1.15-0.25-1.15 0-1.8 1-1.8 2.9 0 1.25 0.1 2.1 1.3 2.1 0.4 0 0.95-0.15 0.95-0.15z"></path>
<path fill="#dce5e5" style="fill: var(--color8, #dce5e5)" d="M6.2 15.55c0 0 0.45-0.2 1.1-0.2 0.35 0 0.65 0.050 0.65 0.35 0 0.2-0.050 0.25-0.050 0.25s-0.3 0-0.45 0c-0.85 0-1.8 0.35-1.8 1.5 0 0.9 0.6 1.1 0.95 1.1 0.7 0 1-0.45 1.050-0.45l-0.050 0.4h0.9l0.4-2.75c0-1.15-1-1.2-1.4-1.2zM8.25 16.7c0 0.15-0.6 0.95-1.2 0.95-0.3 0-0.4-0.25-0.4-0.4 0-0.25 0.15-0.6 0.9-0.6 0.15 0.050 0.7 0.050 0.7 0.050z"></path>
<path fill="#dce5e5" style="fill: var(--color8, #dce5e5)" d="M8.75 18.4c0 0 0.3 0.1 1.15 0.1 0.25 0 1.5 0.050 1.5-1.3 0-1.25-1.2-1-1.2-1.5 0-0.25 0.2-0.35 0.55-0.35 0.15 0 0.7 0.050 0.7 0.050l0.15-0.9c0 0-0.35-0.1-0.95-0.1-0.75 0-1 0.3-1 1.3 0 1.15 0.75 1.050 0.75 1.5 0 0.3-0.35 0.35-0.6 0.35z"></path>
<path fill="#dce5e5" style="fill: var(--color8, #dce5e5)" d="M29.6 15c0 0-0.4-0.5-0.95-0.5-0.9 0-1.2 1.1-1.2 2.4 0 0.8-0.1 1.65 0.75 1.65 0.6 0 0.95-0.4 0.95-0.4l-0.050 0.35h1l0.75-4.8zM29.55 16.3c0 0.55-0.45 1.25-1 1.25-0.35 0-0.55-0.3-0.55-0.8 0-0.8 0.35-1.3 0.8-1.3 0.35 0 0.75 0.25 0.75 0.85z"></path>
<path fill="#dce5e5" style="fill: var(--color8, #dce5e5)" d="M2.1 18.45l0.6-3.6 0.1 3.6h0.7l1.3-3.6-0.55 3.6h1.050l0.8-4.8h-1.25l-1.4 2.95-0.050-2.95h-0.55l-1.7 4.8h0.95z"></path>
<path fill="#dce5e5" style="fill: var(--color8, #dce5e5)" d="M16.55 18.45h1.050c0.3-1.65 0.35-3 1.050-2.75 0.1-0.65 0.25-0.9 0.35-1.15 0 0-0.050 0-0.2 0-0.45 0-0.8 0.6-0.8 0.6l0.1-0.55z"></path>
<path fill="#dce5e5" style="fill: var(--color8, #dce5e5)" d="M22.45 15.55c0 0 0.45-0.2 1.1-0.2 0.35 0 0.65 0.050 0.65 0.35 0 0.2-0.050 0.25-0.050 0.25s-0.3 0-0.45 0c-0.85 0-1.8 0.35-1.8 1.5 0 0.9 0.6 1.1 0.95 1.1 0.7 0 1-0.45 1.050-0.45l-0.050 0.4h0.9l0.4-2.75c0-1.15-1-1.2-1.4-1.2zM24.5 16.7c0 0.15-0.6 0.95-1.2 0.95-0.3 0-0.4-0.25-0.4-0.4 0-0.25 0.15-0.6 0.9-0.6 0.2 0.050 0.7 0.050 0.7 0.050z"></path>
<path fill="#dce5e5" style="fill: var(--color8, #dce5e5)" d="M24.95 18.45h1.050c0.3-1.65 0.35-3 1.050-2.75 0.1-0.65 0.25-0.9 0.35-1.15 0 0-0.050 0-0.2 0-0.45 0-0.8 0.6-0.8 0.6l0.1-0.55z"></path>
</symbol>
</symbol></defs></svg>